# xmcd
#
# Track frame offsets:
# 150
# 13038
# 22764
# 35452
# 47635
# 60533
# 71789
# 84920
# 97140
# 113239
# 124168
# 135450
# 149290
# 162255
# 172541
# 188893
# 202839
# 217067
# 227061
# 237639
# 249620
# 260935
# 273324
# 283185
# 294055
# 303953
# 323587
#
# Disc length: 4484 seconds
#
#
# Revision: 0
# Processed by: cddbd v1.5.2PL0 Copyright (c) Steve Scherf et al.
# Submitted via: Nero 7, 2, 3, 3 
#
DISCID=8311821b
DTITLE=bill anderson - old country
DYEAR=1965
DGENRE=Country
TTITLE0=old country
TTITLE1=old country
TTITLE2=old country
TTITLE3=old country
TTITLE4=old country
TTITLE5=old country
TTITLE6=old country
TTITLE7=old country
TTITLE8=old country
TTITLE9=old country
TTITLE10=old country
TTITLE11=old country
TTITLE12=old country
TTITLE13=old country
TTITLE14=old country
TTITLE15=old country
TTITLE16=old country
TTITLE17=old country
TTITLE18=old country
TTITLE19=old country
TTITLE20=old country
TTITLE21=old country
TTITLE22=old country
TTITLE23=old country
TTITLE24=old country
TTITLE25=old country
TTITLE26=old country
EXTD=
EXTT0=
EXTT1=
EXTT2=
EXTT3=
EXTT4=
EXTT5=
EXTT6=
EXTT7=
EXTT8=
EXTT9=
EXTT10=
EXTT11=
EXTT12=
EXTT13=
EXTT14=
EXTT15=
EXTT16=
EXTT17=
EXTT18=
EXTT19=
EXTT20=
EXTT21=
EXTT22=
EXTT23=
EXTT24=
EXTT25=
EXTT26=
PLAYORDER=
